<?xml version="1.0" encoding="UTF-8"?>
<!DOCTYPE svg PUBLIC "-//W3C//DTD SVG 1.1//EN" "http://www.w3.org/Graphics/SVG/1.1/DTD/svg11.dtd">
<!-- Creator: CorelDRAW 2021 (64-Bit) -->
<svg xmlns="http://www.w3.org/2000/svg" xml:space="preserve" width="50.6279mm" height="36.4018mm" version="1.1" style="shape-rendering:geometricPrecision; text-rendering:geometricPrecision; image-rendering:optimizeQuality; fill-rule:evenodd; clip-rule:evenodd"
viewBox="0 0 149.46 107.46"
 xmlns:xlink="http://www.w3.org/1999/xlink"
 xmlns:xodm="http://www.corel.com/coreldraw/odm/2003">
 <defs>
  <style type="text/css">
   <![CDATA[
    .fil0 {fill:#EF667A;fill-rule:nonzero}
   ]]>
  </style>
 </defs>
 <g id="Layer_x0020_1">
  <metadata id="CorelCorpID_0Corel-Layer"/>
  <g id="_2149133695488">
   <path class="fil0" d="M127.6 89.31l-0.62 -25.14c-0.01,-0.61 -0.3,-1.15 -0.74,-1.52 -0.92,2.29 -3.89,0.51 -3.89,0.51 0,0 -0.12,-0.66 -0.45,-1.44l-2.42 -0.35 0.16 -1.11 1.57 0.23c-0.18,-0.24 -0.37,-0.46 -0.6,-0.65l-16.96 -4.06 -5.37 -6.48c-9.26,14.67 -9.18,35.37 -8.24,46.78 2.53,15.08 31.28,-1.3 37.56,-6.77z"/>
   <path class="fil0" d="M40.48 88.33c-1.19,3.77 -2.16,8.45 -2.87,12.6 6.18,2.95 12.29,4.63 17.72,5.54 -1.02,-5.04 -2.93,-13.5 -5.17,-18.94l-9.67 0.81z"/>
   <path class="fil0" d="M85.58 97.96c-1.24,-9.93 -4.03,-26.68 -8.59,-25.42 -5.54,1.53 -8.97,27.6 -9.82,34.92 4.6,0.01 7.45,-0.45 7.45,-0.45 2.46,-0.22 10.13,-1.23 12.87,-3.35 -1.2,-0.81 -0.73,-1.55 -1.91,-5.7z"/>
   <path class="fil0" d="M46.07 24.22l-8.33 0 0 -8.33 8.33 0 0 8.33zm0 11.4l-8.33 0 0 -8.33 8.33 0 0 8.33zm-11.27 -11.4l-8.33 0 0 -8.33 8.33 0 0 8.33zm0 11.4l-8.33 0 0 -8.33 8.33 0 0 8.33zm81.79 -35.11c-30.74,-4.39 -41.96,20.98 -41.96,20.98 0,0 -11.22,-25.37 -41.96,-20.98 -10.7,1.53 -18.86,5.96 -24.37,12.48 -5.25,6.59 -9.36,18.51 -8.04,32.9 0.8,6.48 2.65,13.37 5.58,20.48 2.12,5.15 4.94,10.05 8.25,14.67 0.05,0.06 0.09,0.13 0.14,0.19 0.14,0.19 0.28,0.39 0.42,0.58 5.61,7.61 12.07,13 18.63,16.81 0.32,-2.77 0.73,-6.02 1.26,-9.8l-2.81 0.23c0,0 4.87,-21.09 9.46,-27.23 4.85,-8.7 11.45,-11.05 14.3,-11.68 0.84,-0.18 1.71,0.01 2.39,0.52l0.03 0.02c-0.02,-0.12 -0.04,-0.25 -0.06,-0.37 -0.17,-1.31 0.07,-2.58 0.61,-3.69 -0.58,-0.47 -0.99,-1.16 -1.1,-1.96 -0.21,-1.65 0.96,-3.16 2.61,-3.37 1.36,-0.17 2.62,0.59 3.14,1.79 0.13,-0.02 0.25,-0.04 0.38,-0.06 3.57,-0.45 6.84,2.08 7.29,5.65 0.45,3.57 -2.08,6.84 -5.65,7.29 -0.12,0.02 -0.23,0.03 -0.35,0.03l3.64 5.45c4.97,-19.58 16.63,-23.9 20.93,-24.85 0.97,-0.21 1.98,0.01 2.77,0.61l0.03 0.02c-0.03,-0.14 -0.05,-0.28 -0.07,-0.43 -0.52,-4.14 2.41,-7.92 6.55,-8.45 4.14,-0.52 7.92,2.41 8.45,6.55 0.52,4.14 -2.41,7.92 -6.55,8.45 -0.14,0.02 -0.27,0.03 -0.41,0.04l5.69 8.52 15.89 4.64c0,0 4.73,1.94 4.76,4.89 0.96,0.53 1.6,1.53 1.63,2.68l0.55 24.22c4.48,-4.15 9.24,-10.19 13.12,-18.91 0,0 0.3,-0.61 0.89,-1.32 0.26,-0.58 0.51,-1.16 0.76,-1.75 13.66,-33.18 3.9,-61.48 -26.84,-65.87z"/>
   <path class="fil0" d="M67.22 67.24c0.06,-0.35 0.11,-0.69 0.18,-1.04l-4.21 -5.09c-1.42,2.29 -2.54,4.75 -3.4,7.3 -0.49,2.8 -1.57,10.89 0.61,18.25l-3.17 0.27c0.1,7.99 1.45,15.9 2.29,20.11 1.02,0.11 2,0.19 2.95,0.26 0.24,-5.12 1.18,-17.89 4.76,-40.06z"/>
   <polygon class="fil0" points="147.79,66.13 147.79,66.13 147.79,66.13 "/>
  </g>
 </g>
</svg>
